<svg width="270" height="125" viewBox="0 0 270 125" fill="none" xmlns="http://www.w3.org/2000/svg">
<path d="M116.775 24.4882V40.5842L82.6613 56.1986L116.775 72.3718V88.1451L65 63.582V49.2149L116.775 24.4882ZM152.006 39.0599C152.006 34.9473 148.225 32.363 145.216 34.4193C142.207 36.4756 142.207 41.6442 145.216 43.7005C148.225 45.7568 152.006 43.1725 152.006 39.0599ZM139.669 51.6958C129.467 46.1027 129.467 32.0442 139.669 26.4511C149.872 20.8581 162.694 27.8874 162.694 39.0734C162.694 50.2595 149.872 57.2888 139.669 51.6958ZM194.312 84.4882C194.312 80.3756 190.531 77.7913 187.522 79.8476C184.513 81.9039 184.513 87.0725 187.522 89.1288C190.531 91.1851 194.312 88.6008 194.312 84.4882ZM181.975 97.1241C171.772 91.531 171.772 77.4725 181.975 71.8795C192.177 66.2864 205 73.3157 205 84.5018C205 95.6878 192.177 102.717 181.975 97.1241ZM150.624 99.087L203.783 24H185.619L131.574 99.087H150.624Z" fill="url(#ejs-paint0_linear)"/>
<defs>
<linearGradient id="ejs-paint0_linear" x1="135" y1="24" x2="135" y2="99.087" gradientUnits="userSpaceOnUse">
<stop stop-color="#D64C7F"/>
<stop offset="1" stop-color="#EE4758"/>
</linearGradient>
</defs>
</svg>
