<svg width="270" height="125" viewBox="0 0 270 125" fill="none" xmlns="http://www.w3.org/2000/svg">
<path d="M93.2337 86.093V37.9603H95.8445V45.5317C96.1528 45.1959 96.4375 44.8393 96.6967 44.4644C98.8772 39.9404 103.476 37.0852 108.497 37.1416C114.45 36.9641 119.287 39.1676 122.13 44.4644C123.939 47.755 124.934 51.4306 125.033 55.1843C125.132 58.938 124.331 62.6609 122.698 66.0421C120.05 71.978 113.508 74.9293 106.505 73.8453C104.325 73.66 102.227 72.9317 100.401 71.727C98.5758 70.5223 97.0809 68.8795 96.0534 66.9486V86.0909L93.2337 86.093ZM95.8445 54.9869L96.4293 60.6388C97.4611 67.0718 101.265 70.8731 107.236 71.5874C110.04 72.0485 112.918 71.5228 115.378 70.0998C117.838 68.6769 119.728 66.4449 120.726 63.7843C123.049 58.2494 122.878 51.9835 120.267 46.5781C119.201 44.193 117.388 42.2197 115.102 40.9562C112.815 39.6928 110.18 39.2079 107.593 39.5749C105.165 39.7515 102.853 40.6798 100.977 42.2309C99.1009 43.782 97.7545 45.8789 97.1249 48.2302C96.5689 50.4553 96.1414 52.7106 95.8445 54.9848V54.9869ZM178.342 61.5286C177.946 64.9175 176.332 68.0473 173.802 70.336C171.271 72.6246 167.995 73.9162 164.584 73.9706C153.635 74.522 148.497 67.2514 147.68 58.8614C147.112 54.3051 147.852 49.6813 149.813 45.5296C151.178 42.6815 153.414 40.3418 156.197 38.8495C158.98 37.3572 162.166 36.7897 165.294 37.2293C168.267 37.482 171.085 38.6634 173.35 40.6061C175.615 42.5489 177.211 45.1547 177.913 48.0547C178.47 50.6965 178.879 53.3671 179.139 56.0542H150.385C149.853 63.6611 153.94 69.7766 159.734 71.2512C166.95 73.0265 173.118 69.8998 175.357 63.0386C175.854 61.2779 176.76 61.0294 178.36 61.5286H178.342ZM150.364 53.6189H176.084C175.923 45.515 170.877 39.625 164.032 39.5582C156.304 39.4328 150.701 45.0868 150.364 53.6189V53.6189ZM183.657 61.7061H186.178C186.271 63.5634 186.874 65.3591 187.921 66.8957C188.968 68.4324 190.419 69.6504 192.114 70.4157C194.242 71.3734 196.559 71.8388 198.892 71.7773C201.224 71.7159 203.513 71.1291 205.588 70.0606C206.719 69.5514 207.666 68.7073 208.302 67.6424C208.938 66.5775 209.231 65.343 209.143 64.1059C209.208 62.9128 208.882 61.7311 208.215 60.7398C207.548 59.7485 206.576 59.0018 205.446 58.6128C202.672 57.581 199.723 57.0129 196.897 56.1064C193.956 55.2692 191.081 54.2179 188.294 52.961C183.741 50.7386 183.459 42.0833 188.613 39.343C191.253 37.8536 194.223 37.0489 197.254 37.0022C200.284 36.9555 203.278 37.6683 205.962 39.0757C209.291 40.9137 211.131 44.6252 210.584 48.391H208.422C208.422 48.2866 208.226 48.1947 208.226 48.0882C207.958 41.1956 202.165 39.0402 195.945 39.6459C194.065 39.8547 192.283 40.4229 190.612 41.2625C189.608 41.7212 188.771 42.4808 188.217 43.4361C187.663 44.3914 187.42 45.4952 187.521 46.5948C187.523 47.6952 187.866 48.7679 188.503 49.6656C189.139 50.5632 190.038 51.2416 191.076 51.6075C193.791 52.6038 196.674 53.2429 199.483 54.0241L206.271 55.7994C207.814 56.3058 209.166 57.2686 210.15 58.5605C211.134 59.8524 211.703 61.4125 211.781 63.0345C212.324 66.6791 210.465 70.2611 207.177 71.9216C201.241 75.2801 191.464 74.3925 187.11 70.1463C184.881 67.9052 183.638 64.862 183.663 61.704L183.657 61.7061ZM243.768 48.3931H241.404C241.404 48.0735 241.279 47.7665 241.243 47.5221C241.205 45.7499 240.559 44.0445 239.414 42.6918C238.268 41.3392 236.692 40.4216 234.95 40.0928C231.664 39.1504 228.159 39.3193 224.979 40.5732C223.721 40.9331 222.614 41.6903 221.823 42.7317C221.031 43.773 220.598 45.0425 220.588 46.3504C220.543 47.6346 220.943 48.895 221.72 49.9183C222.498 50.9417 223.604 51.6653 224.853 51.9668L235.66 54.7405C236.829 55.0208 237.98 55.3709 239.106 55.789C242.553 57.0422 244.892 60.2419 244.996 63.8992C245.048 65.6893 244.557 67.4532 243.588 68.9592C242.619 70.4651 241.217 71.6427 239.566 72.3373C237.058 73.4766 234.339 74.0794 231.584 74.1071C228.83 74.1348 226.1 73.5868 223.569 72.4981C221.488 71.6007 219.732 70.0873 218.537 68.1615C217.342 66.2358 216.765 63.9902 216.885 61.727H219.195C220.064 65.9147 222.94 69.4027 226.886 71.0527C230.831 72.7028 235.336 72.2976 238.925 69.975C240.001 69.4151 240.895 68.5585 241.5 67.5065C242.105 66.4545 242.395 65.2512 242.337 64.0391C242.391 62.8452 242.054 61.6663 241.377 60.6814C240.7 59.6965 239.72 58.9593 238.586 58.5815C235.813 57.5497 232.863 57.0004 230.037 56.0751C227.08 55.2508 224.188 54.2114 221.382 52.9651C216.938 50.7783 216.582 42.194 221.649 39.4558C224.322 37.9039 227.35 37.0702 230.44 37.0358C233.53 37.0014 236.576 37.7675 239.282 39.2595C240.83 40.1832 242.075 41.537 242.867 43.1561C243.66 44.7751 243.964 46.5896 243.743 48.3785L243.768 48.3931ZM88.9374 73.1017C88.0067 73.4536 86.9794 73.4527 86.0494 73.0991C85.1193 72.7454 84.3509 72.0636 83.8892 71.1822L74.6992 58.4729L73.3666 56.6975L62.702 71.201C62.2674 72.0445 61.5405 72.7009 60.6572 73.0476C59.774 73.3943 58.7947 73.4076 57.9023 73.085L71.6414 54.6528L58.8589 37.9979C60.7554 37.3129 62.8691 38.0564 63.9239 39.7733L73.4481 52.6393L83.0286 39.8234C83.4665 38.9944 84.1939 38.3553 85.0723 38.0275C85.9507 37.6998 86.9189 37.7064 87.7928 38.046L82.8323 44.6273L76.1132 53.3724C75.9267 53.5389 75.7775 53.743 75.6753 53.9712C75.5731 54.1994 75.5203 54.4466 75.5203 54.6966C75.5203 54.9466 75.5731 55.1938 75.6753 55.422C75.7775 55.6502 75.9267 55.8543 76.1132 56.0208L88.9103 73.1017H88.9374ZM147.273 37.8204V40.3268C145.475 40.2089 143.673 40.4692 141.982 41.091C140.291 41.7128 138.749 42.6822 137.456 43.9367C136.163 45.1912 135.147 46.7029 134.475 48.3742C133.802 50.0455 133.487 51.8393 133.551 53.6398C133.551 59.4935 133.551 65.3473 133.551 71.201V73.1915H131.009V37.9771H133.515V45.1933C136.59 39.9299 141.335 37.9771 147.29 37.835L147.273 37.8204ZM25.0042 54.423L26.1237 48.8944C29.1982 37.9624 41.73 33.4134 50.3519 40.1848C55.4001 44.149 56.6596 49.7653 56.4131 56.0939H27.9721C27.5126 67.3976 35.6688 74.2233 46.1015 70.7394C49.5394 69.4863 52.1272 66.629 52.9794 63.0783C53.5308 61.303 54.4415 60.998 56.1082 61.5118C55.8302 63.6759 55.0652 65.7488 53.8706 67.5747C52.6761 69.4005 51.0831 70.9317 49.2115 72.0532C46.1194 73.7442 42.5718 74.4143 39.0759 73.9675C35.58 73.5207 32.3149 71.98 29.7475 69.5656C27.2077 66.7105 25.6746 63.1013 25.376 59.2895C25.376 58.6629 25.1671 58.0781 25.0209 57.5142C25.007 56.4601 25 55.4297 25 54.423H25.0042ZM28.0076 53.6586H53.7271C53.5663 45.4648 48.3948 39.6521 41.4982 39.5978C33.8203 39.4934 28.3272 45.1787 27.9888 53.6231L28.0076 53.6586Z" fill="black"/>
</svg>
