<svg width="80" height="120" viewBox="0 0 80 120" fill="none" xmlns="http://www.w3.org/2000/svg">
<path d="M19.9992 119.994C25.3033 119.994 30.3901 117.887 34.1407 114.137C37.8913 110.386 39.9983 105.299 39.9983 99.9953V79.9961H19.9992C14.6951 79.9961 9.60819 82.1031 5.85762 85.8537C2.10705 89.6043 0 94.6911 0 99.9953C0 105.299 2.10705 110.386 5.85762 114.137C9.60819 117.887 14.6951 119.994 19.9992 119.994Z" fill="#0ACF83"/>
<path d="M0 59.9979C0 54.6938 2.10705 49.607 5.85762 45.8564C9.60819 42.1058 14.6951 39.9988 19.9992 39.9988H39.9983V79.9971H19.9992C14.6951 79.9971 9.60819 77.89 5.85762 74.1395C2.10705 70.3889 0 65.302 0 59.9979Z" fill="#A259FF"/>
<path d="M0 19.9992C-1.61786e-06 14.6978 2.1049 9.61326 5.85209 5.86314C9.59928 2.11302 14.6821 0.00414172 19.9835 0L39.9827 0V39.9983H19.9992C14.695 39.9983 9.60819 37.8913 5.85762 34.1407C2.10705 30.3901 0 25.3033 0 19.9992Z" fill="#F24E1E"/>
<path d="M40.002 0H60.0011C65.3052 0 70.3921 2.10705 74.1427 5.85762C77.8932 9.60819 80.0003 14.6951 80.0003 19.9992C80.0003 25.3033 77.8932 30.3901 74.1427 34.1407C70.3921 37.8913 65.3052 39.9983 60.0011 39.9983H40.002V0Z" fill="#FF7262"/>
<path d="M80.0003 59.9979C80.0003 65.302 77.8932 70.3889 74.1427 74.1395C70.3921 77.89 65.3052 79.9971 60.0011 79.9971C54.697 79.9971 49.6101 77.89 45.8596 74.1395C42.109 70.3889 40.002 65.302 40.002 59.9979C40.002 54.6938 42.109 49.607 45.8596 45.8564C49.6101 42.1058 54.697 39.9988 60.0011 39.9988C65.3052 39.9988 70.3921 42.1058 74.1427 45.8564C77.8932 49.607 80.0003 54.6938 80.0003 59.9979Z" fill="#1ABCFE"/>
</svg>
