<svg width="270" height="125" viewBox="0 0 270 125" fill="none" xmlns="http://www.w3.org/2000/svg">
<path fill-rule="evenodd" clip-rule="evenodd" d="M133.414 40.0381V70.8914C133.414 77.6791 127.86 83.2327 121.072 83.2327V77.0621C124.51 77.0621 127.243 74.3293 127.243 70.8914V40.0381H133.414ZM246.072 46.2087H260V40.0381H226.062V46.2087H239.902V83.2327H246.072V46.2087ZM207.462 40.0381V70.8914C207.462 74.3293 204.729 77.0621 201.291 77.0621C197.853 77.0621 195.12 74.3293 195.12 70.8914V52.3794C195.12 45.5917 189.567 40.0381 182.779 40.0381C175.991 40.0381 170.438 45.5917 170.438 52.3794V70.8914C170.438 74.3293 167.705 77.0621 164.267 77.0621C160.829 77.0621 158.096 74.3293 158.096 70.8914V40.0381H151.926V70.8914C151.926 77.6791 157.479 83.2327 164.267 83.2327C171.055 83.2327 176.608 77.6791 176.608 70.8914V52.3794C176.608 48.9415 179.341 46.2087 182.779 46.2087C186.217 46.2087 188.95 48.9415 188.95 52.3794V70.8914C188.95 77.6791 194.503 83.2327 201.291 83.2327C208.079 83.2327 213.632 77.6791 213.632 70.8914V40.0381H207.462Z" fill="black"/>
<path fill-rule="evenodd" clip-rule="evenodd" d="M60.5991 41.713L60.5109 18H47.2881L47.3762 41.713L53.9877 50.7927L60.5991 41.713Z" fill="white"/>
<path fill-rule="evenodd" clip-rule="evenodd" d="M47.377 82.3512V106.152H60.5998V82.3512L53.9884 73.2715L47.377 82.3512Z" fill="white"/>
<path fill-rule="evenodd" clip-rule="evenodd" d="M60.5996 82.3514L74.5277 101.569L85.1941 93.8112L71.266 74.5939L60.5996 71.156V82.3514Z" fill="#00F2E6"/>
<path fill-rule="evenodd" clip-rule="evenodd" d="M47.377 41.7131L33.3608 22.4958L22.6943 30.2533L36.6224 49.4705L47.377 52.9084V41.7131Z" fill="#00F2E6"/>
<path fill-rule="evenodd" clip-rule="evenodd" d="M36.622 49.4702L14.055 42.1536L10 54.6712L32.567 62.076L43.2334 58.5499L36.622 49.4702Z" fill="#00B9F1"/>
<path fill-rule="evenodd" clip-rule="evenodd" d="M64.6543 65.5141L71.2657 74.5938L93.8327 81.9104L97.8877 69.3928L75.3207 62.0762L64.6543 65.5141Z" fill="#00B9F1"/>
<path fill-rule="evenodd" clip-rule="evenodd" d="M75.3207 62.076L97.8877 54.6712L93.8327 42.1536L71.2657 49.4702L64.6543 58.5499L75.3207 62.076Z" fill="#D63AFF"/>
<path fill-rule="evenodd" clip-rule="evenodd" d="M32.567 62.0762L10 69.3928L14.055 81.9104L36.622 74.5938L43.2334 65.5141L32.567 62.0762Z" fill="#D63AFF"/>
<path fill-rule="evenodd" clip-rule="evenodd" d="M36.6224 74.5939L22.6943 93.8112L33.3608 101.569L47.377 82.3514V71.156L36.6224 74.5939Z" fill="#FB015B"/>
<path fill-rule="evenodd" clip-rule="evenodd" d="M71.266 49.4705L85.1941 30.2533L74.5277 22.4958L60.5996 41.7131V52.9084L71.266 49.4705Z" fill="#FB015B"/>
</svg>
