<svg width="270" height="125" viewBox="0 0 270 125" fill="none" xmlns="http://www.w3.org/2000/svg">
<path d="M45.2801 42.7579C44.408 39.3781 43.1028 36.1252 41.3969 33.0802C35.7203 23.1514 26.034 18.298 12.338 18.52C22.2164 22.4871 27.231 28.8594 27.3817 37.6369C27.4649 42.6503 24.9587 46.9156 22.1846 51.641C17.6673 59.3384 12.4396 68.2467 16.5386 83.5422C20.9487 99.9989 31.9294 108.078 49.4806 107.78C39.6022 103.813 34.5877 97.4408 34.437 88.6633C34.3516 83.6536 36.857 79.3854 39.6296 74.6604C44.1476 66.9628 49.3787 58.052 45.2801 42.7579Z" fill="url(#kitwind-paint0_linear)"/>
<path d="M56.2355 59.8614C53.2307 58.0881 50.0094 56.711 46.6516 55.7643C35.6221 52.7582 25.3434 56.1769 15.8154 66.0204C25.6037 61.8391 33.6521 62.7986 39.9606 68.8989C43.5618 72.3852 44.8033 77.1738 46.1805 82.4773C48.4249 91.1153 51.0225 101.112 64.7284 109.029C79.4747 117.547 92.9481 115.494 105.149 102.87C95.3603 107.051 87.3118 106.092 81.0033 99.9914C77.4033 96.5093 76.1591 91.7192 74.7812 86.417C72.5372 77.7784 69.9401 67.7776 56.2355 59.8614Z" fill="url(#kitwind-paint1_linear)"/>
<path d="M20.0836 55.3267C18.3112 58.333 16.9348 61.5559 15.9886 64.9153C12.9839 75.9502 15.4317 90.03 25.2743 99.5513C21.093 89.7592 23.0191 77.9233 29.1194 71.6111C32.5998 68.0093 37.3876 66.7645 42.6885 65.3867C51.3223 63.1412 61.3141 60.5423 69.2273 46.8297C77.7411 32.0762 75.6891 18.5963 63.0713 6.3899C67.2505 16.183 66.2915 24.2353 60.1941 30.5469C56.7097 34.1464 51.9222 35.3922 46.622 36.7704C37.9915 39.0179 27.9964 41.6148 20.0836 55.3267Z" fill="url(#kitwind-paint2_linear)"/>
<path d="M97.0061 65.2727H96.8965V43.3784H88.9189V82.8214H96.8965V73.1452L98.9728 70.9037L107.363 82.8214H116.54L104.82 66.0933L115.994 53.5169H106.95L97.0061 65.2727ZM122.934 49.5523C123.476 49.5563 124.013 49.4534 124.515 49.2495C125.017 49.0455 125.474 48.7445 125.86 48.3637C126.246 47.9828 126.553 47.5296 126.763 47.03C126.973 46.5304 127.083 45.9941 127.087 45.452C127.086 44.9091 126.977 44.3718 126.768 43.8711C126.558 43.3704 126.251 42.9163 125.865 42.535C125.479 42.1537 125.021 41.8528 124.518 41.6496C124.015 41.4465 123.476 41.3452 122.934 41.3516C122.391 41.3456 121.853 41.4473 121.35 41.6509C120.847 41.8544 120.389 42.1558 120.003 42.5374C119.617 42.9191 119.311 43.3736 119.101 43.8745C118.892 44.3754 118.784 44.9129 118.784 45.4558C118.787 45.9976 118.897 46.5336 119.107 47.0329C119.317 47.5323 119.624 47.9853 120.009 48.3661C120.395 48.7469 120.851 49.048 121.353 49.2522C121.854 49.4564 122.391 49.5597 122.933 49.5561L122.934 49.5523ZM118.972 82.8214H126.949V53.5192H118.972V82.8214ZM134.378 46.7679V53.5162H130.255V59.5298H134.38V74.9228C134.38 80.6358 137.058 82.9318 143.943 82.9318C145.217 82.9547 146.49 82.8447 147.741 82.6036V76.7257C147.098 76.8199 146.45 76.8655 145.801 76.8622C143.452 76.8622 142.359 75.7962 142.359 73.5547V59.5329H147.768V53.5192H142.358V46.7709L134.378 46.7679ZM193.227 53.5162H185.361L180.908 75.2464H180.744L175.526 53.5162H167.876L162.685 75.2495H162.521L158.095 53.5192H150.062L157.849 82.8214H166.237L171.509 62.1018H171.673L176.974 82.8214H185.468L193.227 53.5162ZM200.439 49.5531C200.981 49.5571 201.519 49.4542 202.021 49.2502C202.523 49.0463 202.98 48.7453 203.365 48.3644C203.751 47.9836 204.058 47.5304 204.269 47.0308C204.479 46.5311 204.589 45.9949 204.592 45.4527C204.591 44.9099 204.483 44.3726 204.273 43.8719C204.064 43.3712 203.757 42.9171 203.371 42.5358C202.984 42.1545 202.527 41.8535 202.023 41.6504C201.52 41.4473 200.982 41.346 200.439 41.3524C199.897 41.346 199.358 41.4473 198.855 41.6504C198.352 41.8535 197.894 42.1545 197.508 42.5358C197.122 42.9171 196.815 43.3712 196.605 43.8719C196.396 44.3726 196.287 44.9099 196.286 45.4527C196.289 45.9954 196.399 46.5322 196.609 47.0324C196.82 47.5326 197.127 47.9863 197.513 48.3675C197.899 48.7487 198.357 49.0499 198.859 49.2539C199.362 49.4579 199.9 49.5606 200.442 49.5561L200.439 49.5531ZM196.48 82.8214H204.458V53.5192H196.48V82.8214ZM209.758 82.8214H217.736V66.0112C217.736 62.2115 220.004 59.5881 223.583 59.5881C227.163 59.5881 228.965 61.7751 228.965 65.6017V82.8214H236.943V63.9338C236.943 57.0728 233.282 52.9732 226.779 52.9732C222.272 52.9732 219.184 55.1051 217.627 58.7407H217.463V53.52H209.759L209.758 82.8214ZM252.87 83.2861C257.187 83.2861 260.575 81.0177 261.995 77.7916H262.132V82.8214H270V43.3784H262.023V58.549H261.859C260.438 55.296 257.159 53.0545 252.925 53.0545C245.576 53.0545 240.931 58.822 240.931 68.1155C240.932 77.491 245.549 83.2861 252.871 83.2861H252.87ZM255.575 59.4508C259.536 59.4508 262.077 62.8403 262.077 68.1707C262.077 73.5279 259.536 76.8629 255.575 76.8629C251.559 76.8629 249.1 73.5555 249.1 68.1707C249.101 62.8127 251.56 59.4508 255.575 59.4508Z" fill="#180536"/>
<defs>
<linearGradient id="kitwind-paint0_linear" x1="24.4742" y1="12.4863" x2="-11.9407" y2="87.5308" gradientUnits="userSpaceOnUse">
<stop stop-color="#67B9FF"/>
<stop offset="1" stop-color="#604BFF"/>
</linearGradient>
<linearGradient id="kitwind-paint1_linear" x1="20.134" y1="53.1704" x2="47.4617" y2="131.973" gradientUnits="userSpaceOnUse">
<stop stop-color="#67B9FF"/>
<stop offset="1" stop-color="#604BFF"/>
</linearGradient>
<linearGradient id="kitwind-paint2_linear" x1="11.4639" y1="94.7939" x2="92.4851" y2="68.445" gradientUnits="userSpaceOnUse">
<stop stop-color="#67B9FF"/>
<stop offset="1" stop-color="#604BFF"/>
</linearGradient>
</defs>
</svg>
