<svg width="270" height="125" viewBox="0 0 270 125" fill="none" xmlns="http://www.w3.org/2000/svg">
<path d="M23.1097 10.2803L25.8908 15.5108C26.4963 16.4543 27.2011 17.3302 27.9932 18.1235C30.3228 20.453 32.54 22.8948 34.525 25.5101C39.2402 31.7025 42.4219 38.5788 44.6953 46.024C46.0578 50.5708 46.7977 55.2298 46.8538 59.9449C47.0835 74.0368 42.2509 86.1385 32.4788 96.1964C30.8954 97.7908 29.1854 99.2542 27.3656 100.572C26.396 100.572 25.9444 99.8068 25.5464 99.1511C24.7809 97.8753 24.3523 96.4796 24.1252 95.061C23.7833 93.3566 23.5562 91.6522 23.671 89.8892V89.0931C23.6149 88.9221 22.7627 10.6809 23.102 10.2828L23.1097 10.2803Z" fill="#599636"/>
<path d="M23.1093 10.1129C22.9945 9.8833 22.8797 10.0568 22.7674 10.1691C22.8235 11.3045 22.4255 12.3276 21.7978 13.2946C21.1166 14.2642 20.2057 14.999 19.2974 15.7951C14.2403 20.1709 10.2651 25.455 7.08085 31.3643C2.87601 39.3198 0.661319 47.8417 0.0387564 56.8204C-0.241907 60.0608 1.05935 71.4812 2.08505 74.7752C4.86617 83.5268 9.86708 90.8547 16.3734 97.2181C17.9655 98.749 19.6699 100.173 21.4304 101.535C21.9407 101.535 21.9994 101.081 22.1117 100.739C22.3355 100.013 22.5061 99.2724 22.622 98.5219C23.1322 95.6821 23.418 92.8397 23.7574 89.9999L23.1322 10.1129H23.1093Z" fill="#6CAC48"/>
<path d="M25.8972 104.037C26.0121 102.731 26.6627 101.652 27.3184 100.572C26.6372 100.292 26.1243 99.7203 25.7263 99.0926C25.3844 98.5236 25.1012 97.8169 24.8741 97.2173C24.078 94.8316 23.9045 92.3312 23.68 89.8868V88.407C23.3993 88.6366 23.3381 90.5655 23.3381 90.8513C23.1672 93.464 22.8278 96.0232 22.3175 98.5211C22.1466 99.5417 22.0368 100.567 21.4092 101.476C21.4092 101.591 21.4092 101.705 21.4653 101.874C22.4859 104.884 22.7717 107.954 22.9452 111.079V112.215C22.9452 113.577 22.889 113.294 24.0245 113.746C24.4786 113.917 24.994 113.975 25.4456 114.315C25.7875 114.315 25.8437 114.034 25.8437 113.804L25.6727 111.929V106.699C25.6166 105.79 25.7875 104.879 25.9023 104.027L25.8972 104.037Z" fill="#C2BFBF"/>
<path d="M69.0439 80.2739V85.6853C69.0379 85.8996 69.0501 86.114 69.0804 86.3262C69.1507 86.9671 69.5441 87.3579 70.1225 87.5377C70.6622 87.6798 71.2105 87.7868 71.7639 87.8582C72.0844 87.8946 72.1912 88.0353 72.2277 88.3793C72.2642 89.5908 72.1573 89.7341 70.9823 89.6611C68.2414 89.5178 65.498 89.4839 62.7571 89.6611H62.4966C61.642 89.6976 61.5717 89.6246 61.5717 88.7701C61.5717 88.6268 61.6081 88.4496 61.6081 88.3063C61.6081 88.0458 61.7853 87.9155 62.0354 87.9155C62.6086 87.8451 63.1401 87.7018 63.6768 87.595C64.4246 87.4179 64.8492 86.9541 64.9222 86.2064C65.0264 85.3883 65.0264 84.5337 65.0264 83.713L65.0629 74.1721C65.0746 73.8954 65.0074 73.621 64.869 73.3811C64.7305 73.1412 64.5267 72.9456 64.2813 72.8173C63.637 72.4594 62.9555 72.1729 62.2491 71.9627C62.0354 71.8924 61.8218 71.8585 61.6446 71.7491C61.1235 71.499 61.1105 71.0378 61.6081 70.7512C61.7853 70.647 61.999 70.5741 62.2126 70.5376C64.3734 70.2187 66.4963 69.6819 68.5489 68.9353C68.9762 68.792 69.083 68.8311 69.1221 69.2557C69.1585 69.5163 69.1221 69.8289 69.0856 70.0738C69.0152 70.5376 69.0153 70.9987 69.0153 71.4286C69.0153 71.6058 69.0517 71.7856 69.2289 71.8924C69.4061 71.9992 69.5858 71.8924 69.75 71.7882C70.4977 71.215 71.2455 70.6835 72.0635 70.2249C73.236 69.584 74.4866 69.0134 75.8414 68.8363C77.4827 68.6226 78.9027 69.0499 80.1507 70.1181C80.6666 70.5799 81.1211 71.1062 81.5028 71.684C81.8598 72.205 81.8937 72.2181 82.3574 71.8611C83.7122 70.8633 85.1347 69.9748 86.6667 69.3339C88.269 68.6565 89.9078 68.5523 91.544 69.1203C93.2166 69.7247 94.3578 70.8997 95.0352 72.502C95.6084 73.7839 95.8533 75.1074 95.8533 76.4883V86.0292C95.8533 86.6701 96.1138 87.0713 96.7443 87.384C97.4217 87.6445 98.1695 87.7748 98.8807 87.9181C99.3445 88.0223 99.3445 88.0223 99.3445 88.4913C99.2742 89.6637 99.1673 89.7367 98.0262 89.6637C95.1686 89.5035 92.3043 89.5035 89.4467 89.6637C88.8735 89.7002 88.8735 89.7002 88.8422 89.1296V88.9524C88.8057 87.9884 88.8057 87.9884 89.7333 87.78L90.6582 87.5299C90.9715 87.4562 91.2509 87.279 91.4513 87.0271C91.6517 86.7752 91.7615 86.4631 91.7628 86.1412L91.8671 83.4707L91.7967 76.4935C91.7694 75.8705 91.6373 75.2566 91.4059 74.6775C90.5149 72.5047 88.5582 71.723 86.6693 71.9367C85.2442 72.08 83.9988 72.6479 82.8238 73.4686C82.5737 73.6458 82.3965 73.8595 82.433 74.2164C82.7534 76.4961 82.5372 78.7758 82.5763 81.0529V86.0031C82.5763 86.8942 82.9332 87.3215 83.7878 87.5351L85.4292 87.892C85.6793 87.9285 85.82 88.0353 85.82 88.3193V88.5799C85.7835 89.5777 85.7157 89.622 84.7153 89.6116C81.8676 89.4683 79.0173 89.5074 76.2061 89.6116C75.2421 89.6481 75.164 89.5412 75.2082 88.5694C75.2447 87.9963 75.3125 87.965 75.8492 87.8582L77.0216 87.6445C78.0637 87.4309 78.4467 87.0401 78.5171 85.9354L78.6213 83.5489L78.551 76.3919C78.4806 75.5008 78.2904 74.6463 77.8032 73.8282C77.0919 72.5099 75.9794 71.8351 74.4553 71.7621C72.9233 71.6579 71.5711 72.2259 70.2867 72.9345C69.3956 73.4556 69.0048 74.0731 69.0752 75.1074V80.3052L69.0439 80.2739ZM136.125 80.4902V85.5107C136.13 85.8677 136.154 86.2242 136.195 86.5789C136.21 86.8153 136.302 87.0404 136.456 87.2204C136.61 87.4003 136.818 87.5254 137.05 87.5768C137.664 87.7559 138.297 87.8634 138.936 87.8973C139.293 87.9337 139.363 88.0744 139.4 88.361V88.6111C139.363 89.8565 139.222 89.9998 138.011 89.9294C135.301 89.7523 132.6 89.7861 129.893 89.9294L128.85 89.9659C128.637 89.9659 128.59 89.8617 128.53 89.7158C128.426 89.2227 128.426 88.7134 128.53 88.2203C128.566 88.0067 128.707 87.9598 128.921 87.8999C129.442 87.8295 129.885 87.7227 130.38 87.6393C131.271 87.4257 131.591 87.0661 131.625 86.1438L131.729 83.1529V74.3936C131.729 73.7526 131.479 73.3618 130.911 73.0752C130.27 72.7183 129.593 72.4708 128.879 72.2207C128.665 72.1503 128.452 72.0774 128.275 71.9706C127.811 71.6501 127.754 71.1889 128.204 70.832C128.406 70.6658 128.655 70.5658 128.916 70.5454C131.195 70.1885 133.402 69.6908 135.538 68.8363C135.789 68.7321 135.895 68.7998 136.002 69.0134C136.109 69.2271 136.146 69.4772 136.106 69.7247L136.002 71.3974C136.002 71.611 135.898 71.9184 136.073 72.0018C136.286 72.1451 136.43 71.8246 136.607 71.7413C137.658 70.8594 138.819 70.1176 140.061 69.5345C141.166 69.0134 142.302 68.68 143.587 68.7529C145.973 68.8962 147.682 70.1077 148.784 72.2076C149.357 73.3123 149.602 74.5212 149.709 75.7692L149.813 78.3746L149.85 86.2428C149.886 86.8473 150.1 87.2407 150.704 87.4543C151.331 87.6632 151.974 87.8183 152.627 87.9181C153.2 87.9884 153.232 88.0953 153.268 88.6294V88.8065C153.198 90.018 153.125 90.0519 151.913 89.979C149.257 89.8365 146.595 89.8365 143.938 89.979C143.581 90.0154 143.227 89.979 142.896 90.0154C142.682 90.0154 142.539 89.9789 142.505 89.7653C142.435 89.3015 142.362 88.8404 142.469 88.3402C142.505 88.1265 142.612 88.0197 142.86 87.9832L144.501 87.7227C145.074 87.5794 145.392 87.2016 145.465 86.6805L145.535 85.6827L145.499 78.2417C145.499 77.3871 145.462 76.5326 145.285 75.678C144.858 73.8542 143.469 72.5516 141.586 72.3692C139.944 72.192 138.459 72.6193 137.099 73.5077C136.422 73.935 136.135 74.5395 136.135 75.2872V80.6647C136.135 80.5605 136.135 80.5605 136.172 80.5605L136.125 80.4902Z" fill="#47474A"/>
<path d="M240.407 70.413C240.016 67.8128 239.052 65.4992 237.38 63.4696C235.922 61.6767 234.036 60.2805 231.895 59.4105C229.655 58.4855 227.266 58.199 224.845 58.1286C223.847 58.0921 210.247 58.3058 209.249 58.1286C208.999 58.0921 208.822 58.1651 208.676 58.3787C208.499 58.6393 208.319 58.9128 208.212 59.1968C207.785 60.1608 207.785 60.0879 208.817 60.2285C209.671 60.3718 210.49 60.4422 211.31 60.6923C212.058 60.9424 212.592 61.3697 212.769 62.1878C212.84 62.5786 212.913 75.1105 212.913 80.9518L212.769 85.1204C212.733 85.4408 212.699 85.7613 212.592 86.0453C212.449 86.4726 212.201 86.8269 211.774 87.0093C211.304 87.2305 210.797 87.363 210.279 87.4001C209.315 87.5043 209.174 87.5434 208.853 88.6116L208.749 89.0024C208.679 89.4661 208.713 89.5365 209.176 89.5365L219.822 89.6407L223.991 89.5704L226.875 89.2134C230.15 88.609 233.07 87.2542 235.561 85.0839C236.984 83.8273 238.146 82.3028 238.979 80.5974C239.977 78.6043 240.405 76.4288 240.511 74.2247C240.689 72.9793 240.616 71.6974 240.407 70.4156V70.413ZM235.243 75.4674C235.1 77.7471 234.639 79.9539 233.464 81.947C231.968 84.5472 229.832 86.3631 226.877 87.0015C225.596 87.262 224.314 87.3923 222.969 87.2151C222.005 87.1109 221.083 87.0015 220.192 86.681C218.59 86.1078 218.019 85.1178 217.985 83.5545L217.949 62.0862C217.949 60.8043 218.522 60.523 219.444 60.4839C220.833 60.3797 222.258 60.4135 223.647 60.5542C225.125 60.6972 226.576 61.048 227.956 61.5964C228.981 62.0238 229.931 62.6131 230.77 63.342C232.693 64.9834 233.974 67.0416 234.678 69.4646C235.251 71.4239 235.355 73.417 235.251 75.4101L235.243 75.4674ZM269.999 78.9586C269.999 78.745 269.999 78.5678 269.963 78.3542C269.642 76.3949 268.608 74.8995 267.008 73.7609C265.976 73.0132 264.801 72.5155 263.59 72.1586C263.376 72.0882 263.199 72.0153 262.985 71.9814C263.022 71.8043 263.129 71.7678 263.236 71.7313C263.947 71.3744 264.624 70.9836 265.229 70.4495C266.333 69.5245 267.052 68.3834 267.435 66.9947C267.649 66.247 267.649 65.4992 267.579 64.715C267.521 63.7976 267.257 62.9051 266.807 62.1036C266.357 61.3021 265.732 60.6123 264.979 60.0853C263.337 58.8738 261.417 58.3761 259.424 58.3396C255.578 58.2693 251.699 58.3396 247.856 58.3396C246.751 58.3396 245.649 58.41 244.508 58.2354C244.294 58.199 243.987 58.1312 243.831 58.3787C243.57 58.8425 243.257 59.3036 243.153 59.8377C243.117 60.0879 243.19 60.2286 243.474 60.265L245.931 60.622C246.895 60.7653 247.572 61.2994 247.64 62.1539C247.71 62.7445 247.744 63.3387 247.744 63.9334L247.674 70.5902L247.637 83.763C247.637 84.5446 247.533 85.2949 247.387 86.0765C247.352 86.3247 247.246 86.5575 247.082 86.7469C246.918 86.9364 246.703 87.0745 246.462 87.1447C245.751 87.3584 245.073 87.572 244.326 87.572C244.126 87.5531 243.925 87.6026 243.757 87.7124C243.589 87.8222 243.464 87.9858 243.401 88.1765C243.257 88.4969 243.14 88.8539 243.08 89.1743C243.01 89.6016 243.117 89.7475 243.544 89.6954C243.865 89.6589 255.615 89.9455 257.822 89.7319C259.14 89.5886 260.427 89.4114 261.737 89.0206C263.978 88.3094 266.047 87.275 267.683 85.5294C269.038 84.1043 269.819 82.3951 269.89 80.402C269.994 79.9383 269.994 79.4771 269.994 78.9769L269.999 78.9586ZM252.731 64.3685L252.835 61.5208C252.835 60.9867 253.048 60.7392 253.583 60.6298C254.437 60.4526 255.292 60.5256 256.146 60.5594C257.001 60.6298 257.819 60.7366 258.674 60.9867C260.237 61.4505 261.451 62.3415 262.165 63.8344C262.489 64.5132 262.659 65.2552 262.662 66.0073C262.699 67.0051 262.626 67.9665 262.235 68.9253C261.631 70.2436 260.672 71.0982 259.281 71.3483C257.889 71.5984 253.94 71.4916 253.335 71.4916C252.801 71.4916 252.762 71.4213 252.762 70.8872V67.534C252.678 66.4913 252.666 65.4441 252.725 64.3998L252.731 64.3685ZM264.299 83.5233C263.694 85.1256 262.589 86.2329 261.024 86.8321C260.169 87.1526 259.314 87.3532 258.418 87.2959C257.313 87.2594 256.211 87.2959 255.109 87.0822C253.614 86.7618 252.936 85.3366 252.83 84.3049C252.652 82.4889 252.759 80.6365 252.725 79.2843V74.5842C252.725 74.011 252.796 73.8365 253.403 73.8365L256.751 73.8729L259.03 74.1335C260.633 74.4904 262.092 75.0975 263.233 76.3402C264.158 77.3381 264.658 78.547 264.765 79.8653C264.869 81.1107 264.801 82.3222 264.338 83.4972L264.299 83.5233Z" fill="#C2BFBF"/>
<path d="M173.832 72.7972L174.757 72.9405C175.755 72.977 176.93 72.62 177.284 71.2314C177.48 70.5681 177.48 69.8625 177.284 69.1992C177.071 69.1992 176.964 69.3763 176.857 69.4493C176.323 69.8766 175.719 70.1267 175.078 70.197C173.796 70.3403 172.514 70.2674 171.269 69.8062L169.523 69.2018C168.305 68.8031 167.024 68.6352 165.745 68.7067C163.929 68.85 162.22 69.4545 160.618 70.3091C158.909 71.234 157.7 72.6226 157.127 74.5115C156.806 75.6162 156.77 76.7522 156.913 77.8933C157.27 80.4935 158.622 82.3094 161.042 83.2708C161.186 83.3073 161.293 83.375 161.433 83.4141C161.754 83.5913 161.79 83.7711 161.504 84.0186L160.613 84.623L158.476 85.9413C157.942 86.2618 157.872 86.5145 158.049 87.0799C158.261 87.745 158.655 88.3372 159.187 88.789C159.676 89.2083 160.229 89.5453 160.826 89.7869C161.217 89.9641 161.217 90.0474 160.863 90.3601L158.83 91.8191C158.153 92.3402 157.476 92.8612 156.908 93.5282C156.513 93.9509 156.228 94.4645 156.079 95.0235C155.93 95.5825 155.921 96.1696 156.053 96.7328C156.318 97.9688 156.965 99.09 157.903 99.9375C158.829 100.795 159.955 101.407 161.178 101.717C163.171 102.29 165.237 102.321 167.267 101.931C170.185 101.396 172.738 100.107 174.744 97.9079C176.133 96.4489 176.951 94.7397 177.024 92.6971C177.102 91.5158 176.758 90.3452 176.054 89.3935C175.35 88.4417 174.331 87.7706 173.178 87.4994L171.256 87.1424L165.38 86.6213C164.739 86.5849 164.099 86.4781 163.564 86.1576C162.887 85.7303 162.71 84.9122 163.137 84.3781C163.458 83.9873 163.848 83.7372 164.349 83.7007L165.487 83.5965C167.739 83.3674 169.853 82.4044 171.503 80.8556C172.384 80.04 173.014 78.9897 173.319 77.8282C173.746 76.2962 173.746 74.7017 173.389 73.1385C173.285 72.7477 173.319 72.7112 173.817 72.7816L173.832 72.7972ZM165.104 90.532C165.318 90.5685 165.531 90.532 165.745 90.532C167.241 90.6024 168.773 90.7092 170.232 91.1052C170.708 91.246 171.172 91.4246 171.62 91.6393C173.045 92.4209 173.58 93.7757 173.4 95.2348C173.186 96.8371 172.295 97.9756 170.906 98.726C169.981 99.247 168.947 99.4737 167.879 99.5805C167.488 99.617 167.131 99.5805 166.74 99.5805C165.495 99.617 164.284 99.4763 163.108 98.9761C162.29 98.6556 161.613 98.1945 161.009 97.5509C159.763 96.3056 159.185 94.0258 161.045 92.1734C162.184 91.1313 163.468 90.394 165.104 90.532V90.532ZM169.163 79.4227C168.416 81.309 166.777 81.8796 165.141 81.6294C163.645 81.4158 162.541 80.5977 161.832 79.2429C160.907 77.427 160.659 75.5433 161.191 73.5814C161.582 72.1224 162.473 71.0177 164.039 70.7676C166.032 70.4107 167.947 71.1245 168.952 73.1177C169.473 74.0816 169.7 75.2541 169.7 76.9267C169.664 77.6041 169.523 78.529 169.166 79.4201L169.163 79.4227ZM124.304 76.9997C123.983 75.0769 123.272 73.3313 121.954 71.8723C119.995 69.6994 117.504 68.7458 114.69 68.738C112.233 68.7015 109.922 69.4154 107.854 70.6973C105.82 71.9143 104.329 73.8636 103.688 76.1451C103.083 78.2112 103.114 80.3137 103.583 82.4111C104.829 88.0387 109.174 90.4565 114.37 90.1021C115.902 89.9979 117.361 89.4977 118.747 88.8203C120.813 87.8563 122.308 86.3269 123.34 84.2974C124.158 82.6247 124.512 80.8426 124.478 78.813L124.301 76.9971L124.304 76.9997ZM119.249 84.9044C118.995 85.7055 118.512 86.4151 117.861 86.9463C117.209 87.4775 116.417 87.8073 115.581 87.8954C114.018 88.109 112.554 87.7182 111.238 86.7907C110.288 86.092 109.519 85.1764 108.995 84.1202C107.536 81.1292 107.286 77.9975 108.031 74.7929C108.271 73.8011 108.79 72.8988 109.526 72.1927C110.845 70.9812 112.374 70.6973 114.086 71.0542C115.727 71.4111 116.97 72.2996 117.994 73.6544C119.018 75.0092 119.489 76.5724 119.773 78.2138C119.916 79.0319 119.916 79.8864 119.95 80.4205C119.95 82.1297 119.807 83.547 119.273 84.907L119.249 84.9044ZM202.101 77.2863C201.84 75.2202 201.069 73.3339 199.607 71.7681C197.685 69.6681 195.191 68.7771 192.416 68.7406C190.03 68.7041 187.823 69.3815 185.794 70.5566C183.514 71.9114 181.948 73.8315 181.344 76.4317C180.622 79.2684 180.924 82.2689 182.198 84.9044C183.371 87.3978 185.366 89.0001 188.003 89.7113C190.921 90.4929 193.701 90.1386 196.405 88.8203C198.755 87.6817 200.428 85.9023 201.389 83.4793C201.963 82.0541 202.171 80.5248 202.207 78.7427C202.244 78.4222 202.171 77.8516 202.103 77.2837L202.101 77.2863ZM197.187 84.4433C196.614 86.366 195.407 87.6114 193.378 87.898C191.882 88.1116 190.46 87.7547 189.175 86.9001C188.071 86.1524 187.289 85.1545 186.718 83.9821C186.078 82.7367 185.721 81.4184 185.58 80.0662C185.366 78.3936 185.366 76.7574 185.757 75.0821C185.832 74.7518 185.939 74.4297 186.078 74.1207C187.075 71.6274 189.282 70.4888 191.882 71.0594C193.628 71.4502 194.944 72.4142 195.942 73.8732C196.905 75.2984 197.367 76.8642 197.583 78.5629C197.687 79.2403 197.726 79.9516 197.687 80.556C197.687 81.9447 197.583 83.2265 197.166 84.4719L197.187 84.4433Z" fill="#47474A"/>
</svg>
