<svg width="270" height="125" viewBox="0 0 270 125" fill="none" xmlns="http://www.w3.org/2000/svg">
<path d="M134.131 110.975C133.589 110.975 133.082 110.83 132.612 110.577L127.802 107.72C127.079 107.322 127.44 107.177 127.658 107.105C128.634 106.78 128.815 106.707 129.827 106.129C129.936 106.056 130.081 106.093 130.189 106.165L133.878 108.371C134.023 108.443 134.204 108.443 134.312 108.371L148.742 100.017C148.887 99.9442 148.96 99.7993 148.96 99.6188V82.9462C148.96 82.765 148.887 82.6208 148.742 82.5482L134.312 74.2301C134.167 74.1575 133.987 74.1575 133.878 74.2301L119.448 82.5482C119.303 82.6205 119.231 82.8013 119.231 82.9459V99.6185C119.231 99.7634 119.303 99.9439 119.448 100.017L123.39 102.295C125.524 103.38 126.862 102.114 126.862 100.848V84.3926C126.862 84.1757 127.043 83.9585 127.296 83.9585H129.14C129.357 83.9585 129.574 84.1394 129.574 84.3926V100.848C129.574 103.705 128.019 105.369 125.307 105.369C124.475 105.369 123.824 105.369 121.979 104.465L118.182 102.295C117.242 101.753 116.663 100.74 116.663 99.6548V82.9822C116.663 81.8973 117.242 80.8844 118.182 80.3421L132.612 71.9876C133.517 71.4813 134.746 71.4813 135.65 71.9876L150.081 80.3421C151.021 80.8844 151.6 81.8973 151.6 82.9822V99.6548C151.6 100.74 151.021 101.753 150.081 102.295L135.65 110.649C135.18 110.867 134.638 110.975 134.131 110.975H134.131ZM138.58 99.5102C132.251 99.5102 130.949 96.6169 130.949 94.1576C130.949 93.9405 131.13 93.7236 131.383 93.7236H133.263C133.48 93.7236 133.661 93.8682 133.661 94.0854C133.951 96.002 134.782 96.9424 138.616 96.9424C141.654 96.9424 142.956 96.2552 142.956 94.6277C142.956 93.6873 142.594 93.0005 137.856 92.5301C133.914 92.1321 131.455 91.2644 131.455 88.1179C131.455 85.1883 133.915 83.4522 138.037 83.4522C142.666 83.4522 144.945 85.0438 145.235 88.5153C145.235 88.6242 145.198 88.7325 145.126 88.8411C145.053 88.9134 144.945 88.9856 144.837 88.9856H142.956C142.775 88.9856 142.594 88.8411 142.558 88.6602C142.124 86.6713 141.003 86.0201 138.037 86.0201C134.71 86.0201 134.312 87.1776 134.312 88.0453C134.312 89.0942 134.782 89.4197 139.267 89.9983C143.715 90.5772 145.813 91.4089 145.813 94.5191C145.777 97.7018 143.173 99.5102 138.58 99.5102Z" fill="#539E43"/>
<path d="M89.3581 45.7669C89.3581 45.116 88.9963 44.5008 88.4177 44.1754L73.0832 35.351C72.8298 35.2061 72.5406 35.1338 72.2515 35.0975H72.1066C71.8175 35.0975 71.528 35.2061 71.2748 35.351L55.9403 44.1754C55.3614 44.5008 55 45.1157 55 45.7669L55.0363 69.4919C55.0363 69.8173 55.2172 70.1427 55.5063 70.2876C55.7958 70.4685 56.1572 70.4685 56.4107 70.2876L65.5246 65.0796C66.1032 64.7542 66.4649 64.1393 66.4649 63.4884V52.3853C66.4649 51.7344 66.8263 51.1195 67.4052 50.794L71.2748 48.5516C71.5643 48.3708 71.8897 48.2982 72.2152 48.2982C72.5406 48.2982 72.8661 48.3708 73.1195 48.5516L76.9891 50.794C77.568 51.1195 77.9295 51.7341 77.9295 52.3853V63.4884C77.9295 64.1393 78.2912 64.7542 78.8698 65.0796L87.9837 70.2876C88.2732 70.4685 88.6346 70.4685 88.924 70.2876C89.2135 70.1427 89.3944 69.8173 89.3944 69.4919L89.3581 45.7669ZM163.065 13.1087C162.776 12.9638 162.414 12.9638 162.161 13.1087C161.872 13.2895 161.691 13.5787 161.691 13.9041V37.4125C161.691 37.6294 161.582 37.8462 161.365 37.9911C161.148 38.0994 160.931 38.0994 160.714 37.9911L156.881 35.785C156.6 35.625 156.282 35.5408 155.958 35.5408C155.635 35.5408 155.317 35.625 155.036 35.785L139.702 44.6457C139.123 44.9712 138.761 45.5861 138.761 46.2369V63.9221C138.761 64.573 139.123 65.1882 139.702 65.5137L155.036 74.3744C155.317 74.5344 155.635 74.6186 155.958 74.6186C156.282 74.6186 156.6 74.5344 156.881 74.3744L172.215 65.5137C172.794 65.1882 173.156 64.5733 173.156 63.9221V19.8356C173.156 19.1484 172.794 18.5338 172.215 18.2081L163.065 13.1087H163.065ZM161.655 58.0996C161.655 58.2804 161.582 58.425 161.438 58.4973L156.194 61.5351C156.12 61.5709 156.04 61.5894 155.958 61.5894C155.877 61.5894 155.796 61.5709 155.723 61.5351L150.479 58.4973C150.334 58.425 150.262 58.2441 150.262 58.0996V52.0235C150.262 51.8427 150.334 51.6981 150.479 51.6258L155.723 48.5876C155.796 48.5519 155.877 48.5333 155.958 48.5333C156.04 48.5333 156.12 48.5519 156.194 48.5876L161.438 51.6258C161.582 51.6978 161.655 51.879 161.655 52.0235V58.0996ZM214.096 51.879C214.675 51.5535 215 50.9386 215 50.2874V45.9838C215 45.3329 214.638 44.718 214.096 44.3926L198.87 35.5681C198.589 35.4082 198.271 35.324 197.948 35.324C197.624 35.324 197.306 35.4082 197.025 35.5681L181.691 44.4286C181.112 44.754 180.751 45.3689 180.751 46.0201V63.7053C180.751 64.3562 181.112 64.971 181.691 65.2965L196.917 73.9764C197.496 74.3018 198.183 74.3018 198.725 73.9764L207.947 68.8413C208.237 68.6964 208.418 68.371 208.418 68.0455C208.418 67.7201 208.237 67.3946 207.947 67.2498L192.541 58.389C192.251 58.2085 192.071 57.919 192.071 57.5936V52.0601C192.071 51.7347 192.251 51.4093 192.541 51.2644L197.351 48.5157C197.492 48.427 197.655 48.38 197.821 48.38C197.987 48.38 198.15 48.427 198.291 48.5157L203.101 51.2644C203.391 51.4452 203.571 51.7344 203.571 52.0601V56.4001C203.571 56.7255 203.752 57.0509 204.041 57.1955C204.331 57.3764 204.692 57.3764 204.982 57.1955L214.096 51.879V51.879Z" fill="#333333"/>
<path d="M197.713 51.0471C197.767 51.0117 197.829 50.9929 197.894 50.9929C197.958 50.9929 198.021 51.0117 198.074 51.0471L201.004 52.7469C201.113 52.8189 201.185 52.9274 201.185 53.0723V56.4719C201.185 56.6165 201.113 56.7251 201.004 56.7974L198.074 58.4972C198.021 58.5325 197.958 58.5513 197.894 58.5513C197.829 58.5513 197.767 58.5325 197.713 58.4972L194.783 56.7974C194.675 56.7251 194.603 56.6165 194.603 56.4719V53.0723C194.603 52.9274 194.675 52.8189 194.783 52.7469L197.713 51.0471V51.0471Z" fill="#539E43"/>
<mask id="mask0" mask-type="alpha" maskUnits="userSpaceOnUse" x="97" y="35" width="35" height="40">
<path d="M115 35.6401C114.719 35.4801 114.401 35.396 114.078 35.396C113.754 35.396 113.437 35.4801 113.156 35.6401L97.9297 44.4279C97.3508 44.7534 97.0254 45.3683 97.0254 46.0191V63.6323C97.0254 64.2832 97.3871 64.8981 97.9297 65.2236L113.156 74.012C113.437 74.172 113.754 74.2561 114.078 74.2561C114.401 74.2561 114.719 74.172 115 74.012L130.226 65.2236C130.805 64.8981 131.131 64.2832 131.131 63.6323V46.0194C131.131 45.3686 130.769 44.7537 130.226 44.4282L115 35.6401Z" fill="white"/>
</mask>
<g mask="url(#mask0)">
<path d="M115 35.6401C114.719 35.4801 114.401 35.396 114.078 35.396C113.754 35.396 113.437 35.4801 113.156 35.6401L97.9297 44.4279C97.3508 44.7534 97.0254 45.3683 97.0254 46.0191V63.6323C97.0254 64.2832 97.3871 64.8981 97.9297 65.2236L113.156 74.012C113.437 74.172 113.754 74.2561 114.078 74.2561C114.401 74.2561 114.719 74.172 115 74.012L130.226 65.2236C130.805 64.8981 131.131 64.2832 131.131 63.6323V46.0194C131.131 45.3686 130.769 44.7537 130.226 44.4282L115 35.6401Z" fill="url(#paint0_linear)"/>
<path d="M130.262 44.4282L114.964 35.6401C114.813 35.5642 114.656 35.5036 114.493 35.4592L97.3506 64.8265C97.4926 64.9999 97.6641 65.1468 97.8572 65.2605L113.155 74.049C113.589 74.3021 114.096 74.3744 114.566 74.2295L130.66 44.7903C130.551 44.6457 130.407 44.5368 130.262 44.4286V44.4282Z" fill="url(#paint1_linear)"/>
<path fill-rule="evenodd" clip-rule="evenodd" d="M130.3 65.2243C130.734 64.9711 131.059 64.5371 131.204 64.0671L114.422 35.4233C113.988 35.351 113.518 35.387 113.121 35.6402L97.9307 44.3926L114.314 74.2659C114.552 74.2269 114.783 74.1538 115.001 74.049L130.299 65.2246L130.3 65.2243Z" fill="url(#paint2_linear)"/>
<path fill-rule="evenodd" clip-rule="evenodd" d="M130.299 65.2245L115.037 74.013C114.821 74.1228 114.589 74.1961 114.35 74.2298L114.639 74.7724L131.565 64.9717V64.7545L131.131 64.031C131.058 64.5373 130.733 64.9713 130.299 65.2245V65.2245Z" fill="url(#paint3_linear)"/>
<path fill-rule="evenodd" clip-rule="evenodd" d="M130.299 65.2245L115.037 74.013C114.821 74.1228 114.589 74.1961 114.35 74.2298L114.639 74.7724L131.565 64.9717V64.7545L131.131 64.031C131.058 64.5373 130.733 64.9713 130.299 65.2245V65.2245Z" fill="url(#paint4_linear)"/>
</g>
<defs>
<linearGradient id="paint0_linear" x1="120.281" y1="42.1915" x2="103.592" y2="68.415" gradientUnits="userSpaceOnUse">
<stop stop-color="#41873F"/>
<stop offset="0.3288" stop-color="#418B3D"/>
<stop offset="0.6352" stop-color="#419637"/>
<stop offset="0.9319" stop-color="#3FA92D"/>
<stop offset="1" stop-color="#3FAE2A"/>
</linearGradient>
<linearGradient id="paint1_linear" x1="111.766" y1="56.8892" x2="153.563" y2="34.1807" gradientUnits="userSpaceOnUse">
<stop offset="0.1376" stop-color="#41873F"/>
<stop offset="0.4032" stop-color="#54A044"/>
<stop offset="0.7136" stop-color="#66B848"/>
<stop offset="0.9081" stop-color="#6CC04A"/>
</linearGradient>
<linearGradient id="paint2_linear" x1="96.4703" y1="54.827" x2="131.703" y2="54.827" gradientUnits="userSpaceOnUse">
<stop offset="0.09192" stop-color="#6CC04A"/>
<stop offset="0.2864" stop-color="#66B848"/>
<stop offset="0.5968" stop-color="#54A044"/>
<stop offset="0.8624" stop-color="#41873F"/>
</linearGradient>
<linearGradient id="paint3_linear" x1="96.4698" y1="69.4313" x2="131.702" y2="69.4313" gradientUnits="userSpaceOnUse">
<stop offset="0.09192" stop-color="#6CC04A"/>
<stop offset="0.2864" stop-color="#66B848"/>
<stop offset="0.5968" stop-color="#54A044"/>
<stop offset="0.8624" stop-color="#41873F"/>
</linearGradient>
<linearGradient id="paint4_linear" x1="136.835" y1="41.3592" x2="127.909" y2="88.1296" gradientUnits="userSpaceOnUse">
<stop stop-color="#41873F"/>
<stop offset="0.3288" stop-color="#418B3D"/>
<stop offset="0.6352" stop-color="#419637"/>
<stop offset="0.9319" stop-color="#3FA92D"/>
<stop offset="1" stop-color="#3FAE2A"/>
</linearGradient>
</defs>
</svg>
