<svg width="200" height="238" viewBox="0 0 200 238" fill="none" xmlns="http://www.w3.org/2000/svg">
<path fill-rule="evenodd" clip-rule="evenodd" d="M10.406 0.0786643C6.79635 -0.398757 3.42574 1.43171 3.04745 1.94867C2.66917 2.46563 -0.605358 5.16728 0.0989089 10.0569V118.956V227.856L1.47054 230.336C5.0126 236.739 11.5239 239.341 18.053 236.965C20.9231 235.918 142.98 114.568 145.012 110.739C151.109 99.2429 137.032 86.4208 126.049 93.466C121.048 96.6745 103.169 118.058 99.2052 120.04C98.2141 121.031 93.2172 125.573 93.2172 125.573C88.139 132.618 67.4277 137.396 56.3913 134.071C51.5034 132.596 43.5847 128.565 43 127.253C42.9048 127.035 42.5778 126.857 42.2765 126.857C41.4975 126.857 36.0804 121.169 34.1934 118.371C33.3213 117.081 32.4888 115.904 32.3421 115.759C28.2827 111.73 25.4245 92.6713 27.8645 85.8996C28.2827 84.7382 28.6296 83.4897 28.6335 83.1271C28.6454 82.1184 31.7871 75.6894 33.5908 72.9843C35.8762 69.5558 34.6593 70.8083 71.3226 34.1098C89.7108 15.703 104.755 0.504742 104.755 0.334309C104.755 0.163876 83.5266 0.0350804 57.5806 0.0509347L10.406 0.0786643ZM96.1824 47.2826C52.8789 90.5944 53.7511 89.6055 53.8185 95.3487C53.9176 103.728 59.6677 108.849 68.284 108.232C73.166 107.881 73.4058 107.689 91.7821 89.3756C100.844 80.3427 108.432 72.9526 108.644 72.9526C108.854 72.9526 109.542 72.475 110.168 71.8904C111.476 70.6716 119.639 66.6109 120.779 66.6109C121.195 66.6109 122.57 66.2463 123.833 65.8004C132.737 62.6592 150.643 66.5594 157.811 73.2023C158.603 73.9376 159.351 74.5381 159.472 74.5381C159.928 74.5381 163.426 78.2955 163.426 78.783C163.426 79.0644 163.63 79.2943 163.882 79.2943C164.534 79.2943 168.381 85.3843 169.89 88.8069C174.696 99.7027 173.911 114.695 168.027 124.437C165.133 129.229 163.731 130.7 129.272 165.145C110.555 183.855 95.2409 199.303 95.2409 199.473C95.2409 201.748 121.619 197.999 132.449 194.333C141.73 191.191 160.728 181.007 160.728 179.176C162.261 179.176 179.481 161.657 179.733 160.064C180.472 159.675 186.117 151.171 187.348 148.789C199.711 124.869 202.882 102.519 197.437 77.7089C196.502 73.4381 193.959 65.2217 192.779 62.6474C189.037 54.4805 185.913 48.4955 184.7 47.1737C184.337 46.7773 184.04 46.2541 184.04 46.0083C184.04 45.5446 178.74 38.2497 176.25 35.2869C174.506 33.21 166.911 25.6297 164.738 23.7966C161.277 20.8774 156.604 17.4628 156.066 17.4628C155.753 17.4628 155.496 17.2845 155.494 17.0665C155.488 16.2936 146.021 11.0042 140.237 8.54283L136.503 6.95544L96.1824 47.2826Z" fill="#343434"/>
</svg>
