<?xml version="1.0" standalone="no"?>
<!DOCTYPE svg PUBLIC "-//W3C//DTD SVG 20010904//EN"
 "http://www.w3.org/TR/2001/REC-SVG-20010904/DTD/svg10.dtd">
<svg version="1.0" xmlns="http://www.w3.org/2000/svg"
 width="238.000000pt" height="238.000000pt" viewBox="0 0 238.000000 238.000000"
 preserveAspectRatio="xMidYMid meet">
<metadata>
Created by potrace 1.14, written by Peter Selinger 2001-2017
</metadata>
<g transform="translate(0.000000,238.000000) scale(0.100000,-0.100000)"
fill="#000000" stroke="none">
<path d="M229 2367 c-39 -30 -39 -21 -39 -1167 l0 -1111 43 -43 c44 -43 58
-49 112 -40 35 5 95 62 610 574 505 502 680 682 692 711 24 56 -23 146 -86
167 -59 19 -106 0 -176 -73 -198 -207 -281 -286 -327 -309 -53 -28 -164 -48
-235 -44 -112 6 -206 58 -283 156 -57 73 -75 130 -75 247 0 162 0 163 416 580
192 193 349 353 349 357 0 3 -222 6 -492 7 -367 0 -497 -3 -509 -12z"/>
<path d="M1164 1918 c-215 -216 -400 -407 -412 -425 -59 -85 1 -193 109 -195
51 -1 76 19 259 201 80 79 165 157 190 173 150 97 367 72 494 -58 124 -126
152 -337 63 -484 -11 -19 -179 -194 -371 -388 -193 -195 -353 -356 -356 -359
-6 -6 150 3 195 12 176 35 202 44 335 113 98 51 148 89 243 187 178 185 275
427 275 685 0 378 -217 727 -556 895 -39 19 -73 35 -75 35 -1 0 -178 -177
-393 -392z"/>
</g>
</svg>
