<svg width="270" height="125" viewBox="0 0 270 125" fill="none" xmlns="http://www.w3.org/2000/svg">
<path fill-rule="evenodd" clip-rule="evenodd" d="M31.2541 53.0062C34.0861 41.6687 41.1732 36 52.5082 36C69.5145 36 71.636 48.7486 80.1367 50.8774C85.8054 52.2958 90.7637 50.1718 95.0141 44.5031C92.1821 55.8382 85.095 61.5069 73.7624 61.5069C56.7561 61.5069 54.6346 48.7583 46.134 46.6295C40.4652 45.2111 35.5069 47.335 31.2566 53.0038L31.2541 53.0062ZM10 78.5131C12.8368 67.1756 19.9166 61.5069 31.2541 61.5069C48.2603 61.5069 50.3819 74.2555 58.8825 76.3843C64.5513 77.8027 69.5096 75.6787 73.7599 70.01C70.928 81.3475 63.8409 87.0162 52.5058 87.0162C35.4996 87.0162 33.3781 74.2676 24.8774 72.1388C19.2087 70.7204 14.2503 72.8444 10 78.5131V78.5131Z" fill="url(#tailwindcss-paint0_linear)"/>
<path fill-rule="evenodd" clip-rule="evenodd" d="M110.486 55.6144H104.922V52.2813H119.933V55.6144H114.371V70.7327H110.486V55.6144ZM127.2 69.0272C126.685 69.6137 126.077 70.1111 125.4 70.4991C124.738 70.8786 123.879 71.0684 122.826 71.0684C122.244 71.0712 121.665 70.9926 121.106 70.8349C120.561 70.6791 120.084 70.4383 119.68 70.1123C119.276 69.7863 118.95 69.3702 118.712 68.8593C118.473 68.3484 118.347 67.745 118.347 67.0346C118.347 66.1052 118.554 65.3462 118.97 64.7598C119.387 64.1711 119.948 63.6994 120.6 63.3901C121.271 63.0616 122.025 62.8305 122.862 62.6918C123.707 62.5527 124.559 62.4666 125.414 62.4339L127.147 62.3561V61.6846C127.147 60.8574 126.92 60.2881 126.461 59.9815C126.001 59.675 125.463 59.5193 124.845 59.5193C123.41 59.5193 122.592 60.0618 122.388 61.1493L119.079 60.8404C119.318 59.4293 119.94 58.4074 120.94 57.7749C121.94 57.1423 123.288 56.8309 124.979 56.8309C126.013 56.8309 126.894 56.9525 127.619 57.2056C128.344 57.4586 128.928 57.8138 129.366 58.276C129.814 58.7568 130.143 59.3371 130.324 59.9694C130.524 60.6311 130.621 61.3805 130.621 62.2077V70.7351H127.2V69.032V69.0272ZM127.122 64.7112L125.517 64.789C124.758 64.8206 124.144 64.9009 123.68 65.0226C123.215 65.1442 122.853 65.2951 122.609 65.4751C122.366 65.6551 122.188 65.8644 122.106 66.1077C122.023 66.351 121.977 66.6186 121.977 66.9105C121.977 67.3582 122.132 67.7134 122.439 67.9688C122.746 68.2243 123.181 68.3581 123.728 68.3581C124.663 68.3581 125.422 68.144 126.006 67.711C126.334 67.4677 126.604 67.1611 126.809 66.7937C127.013 66.4264 127.118 65.9617 127.118 65.4118V64.7136L127.122 64.7112ZM133.56 57.242H137.185V70.7302H133.56V57.242ZM133.511 52.2789H137.234V55.5341H133.511V52.2789ZM140.285 52.2789H143.91V70.7302H140.285V52.2789ZM145.532 57.242H149.464L151.354 66.1831L153.938 57.371H157.096L159.529 66.2098L161.419 57.2688H165.198L161.264 70.757H157.743L155.335 61.8671L152.902 70.757H149.462L145.53 57.2688L145.532 57.242ZM166.845 57.242H170.47V70.7302H166.845V57.242ZM166.796 52.2789H170.519V55.5341H166.796V52.2789ZM173.545 57.242H177.066V59.1032C177.601 58.3125 178.233 57.7335 178.963 57.371C179.693 57.0085 180.46 56.8284 181.25 56.8284C182.788 56.8284 183.927 57.2299 184.669 58.0303C185.411 58.8307 185.783 60.0934 185.783 61.816V70.7302H182.16V62.3098C182.16 61.3367 181.98 60.7163 181.615 60.3708C181.25 60.0253 180.771 59.855 180.168 59.855C179.705 59.855 179.302 59.928 178.963 60.0618C178.625 60.1956 178.311 60.3976 178.019 60.6555C177.776 60.8987 177.574 61.1858 177.411 61.5216C177.248 61.8642 177.165 62.2394 177.168 62.6188V70.7327H173.518V57.2445L173.545 57.242ZM198.069 68.9493C197.615 69.642 196.992 70.2073 196.258 70.5918C195.525 70.9762 194.705 71.1671 193.877 71.1463C191.98 71.1463 190.568 70.5088 189.632 69.234C188.695 67.9591 188.235 66.1928 188.235 63.9375C188.224 62.9625 188.361 61.9914 188.639 61.0569C188.907 60.1859 189.289 59.4366 189.79 58.8089C190.282 58.1876 190.911 57.6881 191.627 57.3491C192.357 57.0085 193.172 56.8333 194.084 56.8333C194.756 56.8333 195.422 56.955 196.086 57.1983C196.751 57.4415 197.376 57.9281 197.965 58.5948V52.2886H201.59V70.74H198.072V68.9566L198.069 68.9493ZM197.991 63.8329C197.991 62.9716 197.918 62.2831 197.748 61.7649C197.578 61.2467 197.364 60.8282 197.038 60.4997C196.726 60.1908 196.386 60.0132 196.016 59.8915C195.658 59.7978 195.289 59.7503 194.919 59.7504C194.531 59.7487 194.147 59.8282 193.792 59.984C193.437 60.1397 193.13 60.3805 192.86 60.7065C192.59 61.0326 192.381 61.4656 192.228 61.996C192.074 62.5264 191.994 63.1638 191.994 63.9083C191.994 64.716 192.067 65.3924 192.237 65.9374C192.408 66.4823 192.585 66.9203 192.846 67.256C193.106 67.5917 193.405 67.8326 193.751 67.9786C194.096 68.1246 194.468 68.2219 194.865 68.2219C195.726 68.2219 196.434 67.9713 196.987 67.4725C197.335 67.1203 197.596 66.6911 197.748 66.2196C197.909 65.7281 197.991 65.0956 197.991 64.3219V63.8596V63.8329ZM226.316 64.3486C226.228 65.3316 225.999 66.239 225.63 67.0735C225.27 67.8912 224.752 68.629 224.104 69.2437C223.417 69.8806 222.607 70.3685 221.722 70.6767C220.783 71.0173 219.693 71.1925 218.45 71.1925C217.053 71.1925 215.822 70.9589 214.762 70.4942C213.734 70.0539 212.822 69.382 212.098 68.5309C211.38 67.6866 210.842 66.6648 210.48 65.4654C210.117 64.2659 209.937 62.9448 209.937 61.4997C209.937 60.001 210.132 58.658 210.531 57.4683C210.93 56.2786 211.499 55.2641 212.239 54.4198C212.978 53.5756 213.878 52.9285 214.929 52.4808C215.98 52.0331 217.175 51.8093 218.506 51.8093C219.679 51.8093 220.703 51.9553 221.571 52.2472C222.44 52.5392 223.177 52.9625 223.773 53.5124C224.369 54.0622 224.844 54.7288 225.209 55.5025C225.588 56.3342 225.857 57.2118 226.009 58.113L222.177 58.6045C221.987 57.5194 221.618 56.6654 221.082 56.045C220.547 55.4246 219.676 55.1157 218.503 55.1157C217.019 55.1157 215.893 55.6704 215.129 56.7822C214.365 57.8941 213.973 59.4633 213.973 61.4972C213.973 63.5482 214.387 65.1467 215.204 66.2269C215.574 66.7541 216.07 67.1812 216.645 67.4699C217.221 67.7586 217.86 67.9 218.503 67.8813C219.696 67.8813 220.571 67.5747 221.131 66.9641C221.691 66.3534 222.038 65.48 222.177 64.3414L226.316 64.3486ZM231.953 64.7136C232.038 65.8498 232.405 66.677 233.048 67.1952C233.69 67.7134 234.646 67.9737 235.906 67.9737C236.51 67.9737 237.021 67.908 237.434 67.7791C237.848 67.6501 238.183 67.4774 238.444 67.2633C238.692 67.0624 238.883 66.7998 238.998 66.5018C239.113 66.1963 239.17 65.872 239.166 65.5457C239.166 65.0591 238.989 64.609 238.626 64.1881C238.264 63.7672 237.6 63.4582 236.631 63.2709L234.223 62.8329C233.249 62.6626 232.437 62.4364 231.712 62.1614C230.987 61.8865 230.379 61.5289 229.887 61.0909C229.396 60.653 229.021 60.1129 228.763 59.4755C228.505 58.8381 228.374 58.079 228.374 57.2007C228.358 56.3937 228.54 55.5951 228.904 54.8748C229.256 54.2064 229.761 53.631 230.379 53.1961C231.011 52.7484 231.765 52.4078 232.641 52.1742C233.517 51.9407 234.49 51.8263 235.541 51.8263C236.887 51.8263 238.008 51.982 238.906 52.2886C239.804 52.5951 240.529 53.0063 241.081 53.5172C241.633 54.0281 242.042 54.612 242.31 55.2884C242.577 55.9648 242.755 56.6581 242.845 57.3807L239.196 57.843C239.006 56.826 238.641 56.0913 238.101 55.646C237.561 55.2008 236.733 54.9746 235.629 54.9746C234.972 54.9746 234.437 55.0305 234.011 55.1449C233.585 55.2592 233.247 55.4027 232.989 55.5828C232.752 55.7382 232.563 55.9574 232.444 56.2153C232.342 56.4586 232.288 56.7068 232.288 56.9647C232.288 57.6532 232.483 58.1714 232.872 58.5145C233.262 58.8575 233.919 59.1276 234.85 59.3173L237.385 59.8088C239.388 60.2054 240.855 60.8477 241.789 61.7308C242.723 62.614 243.186 63.9205 243.186 65.5675C243.186 66.3753 243.035 67.1246 242.733 67.8058C242.424 68.4942 241.963 69.1038 241.385 69.5892C240.728 70.1324 239.967 70.5371 239.149 70.7789C238.254 71.0635 237.203 71.2047 235.991 71.2047C233.471 71.2047 231.544 70.6694 230.208 69.5892C228.873 68.509 228.15 66.913 228.019 64.7185H231.926L231.953 64.7136ZM248.74 64.7136C248.825 65.8498 249.192 66.677 249.835 67.1952C250.477 67.7134 251.441 67.9737 252.693 67.9737C253.302 67.9737 253.808 67.908 254.226 67.7791C254.645 67.6501 254.976 67.4774 255.236 67.2633C255.484 67.0624 255.676 66.7998 255.791 66.5018C255.905 66.1963 255.962 65.872 255.958 65.5457C255.951 65.0417 255.758 64.5582 255.416 64.1881C255.051 63.7672 254.389 63.4582 253.421 63.2709L251.012 62.8329C250.039 62.6626 249.227 62.4364 248.502 62.1614C247.777 61.8865 247.168 61.5289 246.677 61.0909C246.185 60.653 245.811 60.1129 245.55 59.4755C245.29 58.8381 245.161 58.079 245.161 57.2007C245.145 56.3937 245.327 55.5951 245.691 54.8748C246.047 54.2033 246.538 53.6413 247.166 53.1717C247.794 52.7022 248.553 52.3835 249.428 52.1499C250.304 51.9163 251.278 51.802 252.329 51.802C253.674 51.802 254.796 51.9577 255.693 52.2643C256.591 52.5708 257.314 52.982 257.868 53.4929C258.423 54.0038 258.832 54.5877 259.097 55.2641C259.362 55.9404 259.542 56.6338 259.632 57.3564L255.983 57.8186C255.793 56.8017 255.428 56.0669 254.888 55.6217C254.348 55.1765 253.521 54.9502 252.416 54.9502C251.759 54.9502 251.224 55.0062 250.798 55.1205C250.372 55.2349 250.034 55.3784 249.776 55.5585C249.539 55.7138 249.35 55.9331 249.231 56.191C249.127 56.4343 249.076 56.6825 249.076 56.9404C249.076 57.6289 249.27 58.1471 249.66 58.4901C250.049 58.8332 250.706 59.1032 251.64 59.293L254.199 59.8039C256.202 60.2005 257.669 60.8428 258.603 61.7259C259.537 62.6091 260 63.9156 260 65.5627C260.008 66.3315 259.854 67.0935 259.547 67.7985C259.238 68.4873 258.778 69.0971 258.199 69.5819C257.606 70.0928 256.861 70.4869 255.961 70.774C255.061 71.0611 254.015 71.1998 252.805 71.1998C250.285 71.1998 248.358 70.6645 247.02 69.5843C245.682 68.5041 244.962 66.9081 244.859 64.7136H248.74Z" fill="#24292E"/>
<defs>
<linearGradient id="tailwindcss-paint0_linear" x1="10" y1="-9.33775" x2="95.0141" y2="132.352" gradientUnits="userSpaceOnUse">
<stop stop-color="#2383AE"/>
<stop offset="1" stop-color="#6DD7B9"/>
</linearGradient>
</defs>
</svg>
